<svg version="1.1" xmlns="http://www.w3.org/2000/svg" xmlns:xlink="http://www.w3.org/1999/xlink" width="209.02916" height="122.00103" viewBox="0,0,209.02916,122.00103"><defs><radialGradient cx="138.95092" cy="180.04623" r="48.04798" gradientUnits="userSpaceOnUse" id="color-1"><stop offset="0" stop-color="#000000"/><stop offset="1" stop-color="#ffffff"/></radialGradient><radialGradient cx="82.02677" cy="53.84004" r="0.25" gradientUnits="userSpaceOnUse" id="color-2"><stop offset="0" stop-color="#000000"/><stop offset="1" stop-color="#ffffff"/></radialGradient><radialGradient cx="149.49651" cy="153.37469" r="6.23109" gradientUnits="userSpaceOnUse" id="color-3"><stop offset="0" stop-color="#ffffff"/><stop offset="1" stop-color="#000000"/></radialGradient><radialGradient cx="149.76523" cy="176.43956" r="6.2311" gradientUnits="userSpaceOnUse" id="color-4"><stop offset="0" stop-color="#ffffff"/><stop offset="1" stop-color="#000000"/></radialGradient><radialGradient cx="149.60384" cy="200.36466" r="6.2311" gradientUnits="userSpaceOnUse" id="color-5"><stop offset="0" stop-color="#ffffff"/><stop offset="1" stop-color="#000000"/></radialGradient><radialGradient cx="164.38918" cy="153.2133" r="6.23109" gradientUnits="userSpaceOnUse" id="color-6"><stop offset="0" stop-color="#ffffff"/><stop offset="1" stop-color="#000000"/></radialGradient><radialGradient cx="179.28185" cy="153.48202" r="6.23109" gradientUnits="userSpaceOnUse" id="color-7"><stop offset="0" stop-color="#ffffff"/><stop offset="1" stop-color="#000000"/></radialGradient><radialGradient cx="164.6579" cy="176.27817" r="6.23109" gradientUnits="userSpaceOnUse" id="color-8"><stop offset="0" stop-color="#ffffff"/><stop offset="1" stop-color="#000000"/></radialGradient><radialGradient cx="164.49651" cy="200.63338" r="6.2311" gradientUnits="userSpaceOnUse" id="color-9"><stop offset="0" stop-color="#ffffff"/><stop offset="1" stop-color="#000000"/></radialGradient></defs><g transform="translate(-119.40406,-107.68008)"><g data-paper-data="{&quot;isPaintingLayer&quot;:true}" fill-rule="nonzero" stroke-linejoin="miter" stroke-miterlimit="10" stroke-dasharray="" stroke-dashoffset="0" style="mix-blend-mode: normal"><path d="M120.40406,228.68111v-97.36222h207.02916v97.36222z" fill="#ffffff" stroke="#000000" stroke-width="2" stroke-linecap="butt"/><path d="M138.95092,131.99824v96.09596" fill="url(#color-1)" stroke="#000000" stroke-width="1" stroke-linecap="round"/><path d="M197.00072,226.91752v-94.52705" fill="none" stroke="#000000" stroke-width="2" stroke-linecap="round"/><path d="M209.70493,166.57292l52.72868,-29.71503l52.72868,29.71504l-52.72868,29.71504z" fill="none" stroke="#000000" stroke-width="2" stroke-linecap="butt"/><path d="M306.82468,189.65582h-87.07471" fill="none" stroke="#ffffff" stroke-width="20" stroke-linecap="round"/><text transform="translate(202.34216,198.79733) scale(0.42443,0.42443)" font-size="40" xml:space="preserve" fill="#000000" fill-rule="nonzero" stroke="none" stroke-width="1" stroke-linecap="butt" stroke-linejoin="miter" stroke-miterlimit="10" stroke-dasharray="" stroke-dashoffset="0" font-family="Sans Serif" font-weight="normal" text-anchor="start" style="mix-blend-mode: normal"><tspan x="0" dy="0">A Team</tspan><tspan x="0" dy="46.150000000000006px">B Team</tspan></text><text transform="translate(122.56976,160.55058) scale(0.5274,0.5274)" font-size="40" xml:space="preserve" fill="#000000" fill-rule="nonzero" stroke="none" stroke-width="1" stroke-linecap="butt" stroke-linejoin="miter" stroke-miterlimit="10" stroke-dasharray="" stroke-dashoffset="0" font-family="Sans Serif" font-weight="normal" text-anchor="start" style="mix-blend-mode: normal"><tspan x="0" dy="0">B</tspan><tspan x="0" dy="46.150000000000006px">S</tspan><tspan x="0" dy="46.150000000000006px">O</tspan></text><path d="M164.05354,107.68008z" fill="url(#color-2)" stroke="#000000" stroke-width="1" stroke-linecap="butt"/><path d="M143.26543,153.37469c0,-3.44134 2.78976,-6.23109 6.23109,-6.23109c3.44134,0 6.23109,2.78976 6.23109,6.23109c0,3.44134 -2.78976,6.23109 -6.23109,6.23109c-3.44134,0 -6.23109,-2.78976 -6.23109,-6.23109z" fill="url(#color-3)" stroke="none" stroke-width="0" stroke-linecap="butt"/><path d="M143.53415,176.43956c0,-3.44134 2.78976,-6.23109 6.23109,-6.23109c3.44134,0 6.2311,2.78976 6.2311,6.23109c0,3.44134 -2.78976,6.2311 -6.2311,6.2311c-3.44134,0 -6.23109,-2.78976 -6.23109,-6.2311z" fill="url(#color-4)" stroke="none" stroke-width="0" stroke-linecap="butt"/><path d="M143.37276,200.36466c0,-3.44134 2.78976,-6.23109 6.23109,-6.23109c3.44134,0 6.2311,2.78976 6.2311,6.23109c0,3.44134 -2.78976,6.2311 -6.2311,6.2311c-3.44134,0 -6.23109,-2.78976 -6.23109,-6.2311z" fill="url(#color-5)" stroke="none" stroke-width="0" stroke-linecap="butt"/><path d="M158.1581,153.2133c0,-3.44134 2.78976,-6.23109 6.23109,-6.23109c3.44134,0 6.23109,2.78976 6.23109,6.23109c0,3.44134 -2.78976,6.23109 -6.23109,6.23109c-3.44134,0 -6.23109,-2.78976 -6.23109,-6.23109z" fill="url(#color-6)" stroke="none" stroke-width="0" stroke-linecap="butt"/><path d="M173.05077,153.48202c0,-3.44134 2.78976,-6.23109 6.23109,-6.23109c3.44134,0 6.23109,2.78976 6.23109,6.23109c0,3.44134 -2.78976,6.23109 -6.23109,6.23109c-3.44134,0 -6.23109,-2.78976 -6.23109,-6.23109z" fill="url(#color-7)" stroke="none" stroke-width="0" stroke-linecap="butt"/><path d="M158.42682,176.27817c0,-3.44134 2.78976,-6.23109 6.23109,-6.23109c3.44134,0 6.23109,2.78976 6.23109,6.23109c0,3.44134 -2.78976,6.23109 -6.23109,6.23109c-3.44134,0 -6.23109,-2.78976 -6.23109,-6.23109z" fill="url(#color-8)" stroke="none" stroke-width="0" stroke-linecap="butt"/><path d="M158.26543,200.63338c0,-3.44134 2.78976,-6.23109 6.23109,-6.23109c3.44134,0 6.2311,2.78976 6.2311,6.23109c0,3.44134 -2.78976,6.2311 -6.2311,6.2311c-3.44134,0 -6.23109,-2.78976 -6.23109,-6.2311z" fill="url(#color-9)" stroke="none" stroke-width="0" stroke-linecap="butt"/></g></g></svg>