<svg version="1.1" xmlns="http://www.w3.org/2000/svg" xmlns:xlink="http://www.w3.org/1999/xlink" width="54.09498" height="27.7" viewBox="0,0,54.09498,27.7"><g transform="translate(-239.26667,-177.57223)"><g data-paper-data="{&quot;isPaintingLayer&quot;:true}" fill-rule="nonzero" stroke-linejoin="miter" stroke-miterlimit="10" stroke-dasharray="" stroke-dashoffset="0" style="mix-blend-mode: normal"><path d="M239.26667,184.50299c2.07588,-1.58293 4.00617,-3.44478 5.69766,-5.14742h42.91961l0.0633,0.0633l0.14493,0.08696l0.19822,0.1699l0.96753,1.12878l0.29247,0.01625l0.25289,0.15174l0.29316,0.25128l0.11141,0.0557l0.5394,0.53939l0.37435,0.22461l0.09901,0.066l0.32995,0.40609l0.8,0.6l0.1964,0.0827l0.14335,0.15768l0.57639,0.38425v15.2004l-0.11944,0.07167l-0.3,0.3l-0.5,0.3l-0.7,0.7l-0.5,0.3l-0.8,0.8l-0.3,0.5l-0.3,0.3l-0.3,0.5l-0.3,0.3l-0.4203,0.70048l-0.38461,0.44871l-0.09705,0.19411h-40.48964c-2.26702,-1.03565 -4.52708,-2.13237 -6.21397,-3.39312c-0.79459,-0.59387 -1.54086,-1.25344 -2.275,-1.92302z" fill="#cbcbcb" stroke="none" stroke-width="0" stroke-linecap="butt"/><text transform="translate(246.37778,199.02223) scale(0.5,0.5)" font-size="40" xml:space="preserve" fill="#5c5c5c" fill-rule="nonzero" stroke="none" stroke-width="1" stroke-linecap="butt" stroke-linejoin="miter" stroke-miterlimit="10" stroke-dasharray="" stroke-dashoffset="0" font-family="Sans Serif" font-weight="normal" text-anchor="start" style="mix-blend-mode: normal"><tspan x="0" dy="0">隠す</tspan></text><path d="M239.33943,183.40444c0,-2.31959 1.8804,-4.2 4.2,-4.2c2.31959,0 4.2,1.88041 4.2,4.2c0,2.31959 -1.88041,4.2 -4.2,4.2c-2.31959,0 -4.2,-1.8804 -4.2,-4.2z" fill="#cbcbcb" stroke="none" stroke-width="0" stroke-linecap="butt"/><path d="M284.85054,183.40444c0,-2.31959 1.8804,-4.2 4.2,-4.2c2.31959,0 4.2,1.88041 4.2,4.2c0,2.31959 -1.8804,4.2 -4.2,4.2c-2.31959,0 -4.2,-1.8804 -4.2,-4.2z" fill="#cbcbcb" stroke="none" stroke-width="0" stroke-linecap="butt"/><path d="M284.96165,200.22667c0,-2.31959 1.8804,-4.2 4.2,-4.2c2.31959,0 4.2,1.8804 4.2,4.2c0,2.31959 -1.8804,4.2 -4.2,4.2c-2.31959,0 -4.2,-1.8804 -4.2,-4.2z" fill="#cbcbcb" stroke="#cbcbcb" stroke-width="0" stroke-linecap="butt"/><path d="M244.45054,200.51556l-1.8,1.8l2.2,-2.2l1,1.8" fill="none" stroke="#cbcbcb" stroke-width="5" stroke-linecap="round"/><path d="M242.78979,202.85741l6.2963,-0.09259" fill="none" stroke="#cbcbcb" stroke-width="3" stroke-linecap="round"/><path d="M239.29498,200.18222c0,-2.31959 1.8804,-4.2 4.2,-4.2c2.3196,0 4.2,1.88041 4.2,4.2c0,2.31959 -1.88041,4.2 -4.2,4.2c-2.31959,0 -4.2,-1.8804 -4.2,-4.2z" fill="#cbcbcb" stroke="none" stroke-width="0" stroke-linecap="butt"/></g></g></svg>